<?xml version="1.0" encoding="UTF-8" standalone="no"?><!DOCTYPE svg PUBLIC "-//W3C//DTD SVG 1.1//EN" "http://www.w3.org/Graphics/SVG/1.1/DTD/svg11.dtd"><svg width="100%" height="100%" viewBox="0 0 16 16" version="1.1" xmlns="http://www.w3.org/2000/svg" xmlns:xlink="http://www.w3.org/1999/xlink" xml:space="preserve" xmlns:serif="http://www.serif.com/" style="fill-rule:evenodd;clip-rule:evenodd;stroke-linejoin:round;stroke-miterlimit:2;"><circle id="BG" cx="6.5" cy="6.5" r="4" style="fill:#2d2d2d;"/><path id="Magnifier" d="M9.617,11.031c-0.886,0.611 -1.96,0.969 -3.117,0.969c-3.036,0 -5.5,-2.464 -5.5,-5.5c-0,-3.036 2.464,-5.5 5.5,-5.5c3.036,0 5.5,2.464 5.5,5.5c-0,1.157 -0.358,2.231 -0.969,3.117l3.444,3.444c0.094,0.093 0.146,0.221 0.146,0.353c0,0.133 -0.052,0.26 -0.146,0.354l-0.707,0.707c-0.094,0.094 -0.221,0.146 -0.354,0.146c-0.132,0 -0.26,-0.052 -0.353,-0.146l-3.444,-3.444Zm-3.117,-8.531c-2.208,0 -4,1.792 -4,4c-0,2.208 1.792,4 4,4c2.208,0 4,-1.792 4,-4c-0,-2.208 -1.792,-4 -4,-4Z" style="fill:#eee;"/><path d="M9.505,11.98c-0.892,0.491 -1.916,0.77 -3.005,0.77c-3.449,0 -6.25,-2.801 -6.25,-6.25c-0,-3.449 2.801,-6.25 6.25,-6.25c3.449,-0 6.25,2.801 6.25,6.25c-0,1.089 -0.279,2.113 -0.77,3.005l3.025,3.025l0.156,0.191l0.115,0.215l0.071,0.233l0.024,0.245l-0.024,0.245l-0.071,0.234l-0.115,0.215l-0.156,0.19l-0.707,0.707l-0.19,0.156l-0.215,0.115l-0.234,0.071l-0.245,0.024l-0.245,-0.024l-0.233,-0.071l-0.215,-0.115l-0.191,-0.156l-3.025,-3.025Zm0.112,-0.949l3.444,3.444c0.093,0.094 0.221,0.146 0.353,0.146c0.133,0 0.26,-0.052 0.354,-0.146l0.707,-0.707c0.094,-0.094 0.146,-0.221 0.146,-0.354c0,-0.132 -0.052,-0.26 -0.146,-0.353l-3.444,-3.444c0.611,-0.886 0.969,-1.96 0.969,-3.117c-0,-3.036 -2.464,-5.5 -5.5,-5.5c-3.036,0 -5.5,2.464 -5.5,5.5c0,3.036 2.464,5.5 5.5,5.5c1.157,0 2.231,-0.358 3.117,-0.969Zm-3.117,-8.531c2.208,0 4,1.792 4,4c0,2.208 -1.792,4 -4,4c-2.208,0 -4,-1.792 -4,-4c0,-2.208 1.792,-4 4,-4Zm0,0.75c-1.794,0 -3.25,1.456 -3.25,3.25c0,1.794 1.456,3.25 3.25,3.25c1.794,0 3.25,-1.456 3.25,-3.25c0,-1.794 -1.456,-3.25 -3.25,-3.25Z" style="fill:#2d2d2d;"/><path id="Number" d="M5,6l-0.75,0c-0.138,-0 -0.25,-0.112 -0.25,-0.25l0,-0.5c-0,-0.138 0.112,-0.25 0.25,-0.25l0.75,0l0,-0.75c0,-0.138 0.112,-0.25 0.25,-0.25l0.5,0c0.138,-0 0.25,0.112 0.25,0.25l-0,0.75l1,0l0,-0.75c0,-0.138 0.112,-0.25 0.25,-0.25l0.5,0c0.138,-0 0.25,0.112 0.25,0.25l-0,0.75l0.75,0c0.138,0 0.25,0.112 0.25,0.25l0,0.5c0,0.138 -0.112,0.25 -0.25,0.25l-0.75,-0l-0,1l0.75,0c0.138,0 0.25,0.112 0.25,0.25l0,0.5c0,0.138 -0.112,0.25 -0.25,0.25l-0.75,-0l-0,0.75c-0,0.138 -0.112,0.25 -0.25,0.25l-0.5,0c-0.138,0 -0.25,-0.112 -0.25,-0.25l0,-0.75l-1,-0l-0,0.75c-0,0.138 -0.112,0.25 -0.25,0.25l-0.5,0c-0.138,0 -0.25,-0.112 -0.25,-0.25l0,-0.75l-0.75,0c-0.138,-0 -0.25,-0.112 -0.25,-0.25l0,-0.5c-0,-0.138 0.112,-0.25 0.25,-0.25l0.75,0l0,-1Zm2,-0l-1,-0l-0,1l1,0l0,-1Z" style="fill:#eee;"/></svg>