<?xml version="1.0" encoding="UTF-8" standalone="no"?><!DOCTYPE svg PUBLIC "-//W3C//DTD SVG 1.1//EN" "http://www.w3.org/Graphics/SVG/1.1/DTD/svg11.dtd"><svg width="100%" height="100%" viewBox="0 0 12 12" version="1.1" xmlns="http://www.w3.org/2000/svg" xmlns:xlink="http://www.w3.org/1999/xlink" xml:space="preserve" xmlns:serif="http://www.serif.com/" style="fill-rule:evenodd;clip-rule:evenodd;stroke-linejoin:round;stroke-miterlimit:2;"><path d="M7.917,8.008c0.035,-0.036 0.055,-0.083 0.055,-0.133c-0,-0.05 -0.02,-0.097 -0.055,-0.133c-0.236,-0.235 -0.732,-0.731 -1.04,-1.039c-0.146,-0.146 -0.146,-0.384 0,-0.53c0.231,-0.231 0.565,-0.565 0.796,-0.796c0.146,-0.146 0.384,-0.146 0.53,0c0.308,0.308 0.804,0.804 1.039,1.04c0.036,0.035 0.083,0.055 0.133,0.055c0.05,-0 0.097,-0.02 0.133,-0.055c0.235,-0.236 0.731,-0.732 1.039,-1.04c0.146,-0.146 0.384,-0.146 0.53,0c0.231,0.231 0.565,0.565 0.796,0.796c0.146,0.146 0.146,0.384 -0,0.53c-0.308,0.308 -0.804,0.804 -1.04,1.039c-0.035,0.036 -0.055,0.083 -0.055,0.133c0,0.05 0.02,0.097 0.055,0.133c0.236,0.235 0.732,0.731 1.04,1.039c0.146,0.146 0.146,0.384 -0,0.53c-0.231,0.231 -0.565,0.565 -0.796,0.796c-0.146,0.146 -0.384,0.146 -0.53,-0c-0.308,-0.308 -0.804,-0.804 -1.039,-1.04c-0.036,-0.035 -0.083,-0.055 -0.133,-0.055c-0.05,0 -0.097,0.02 -0.133,0.055c-0.235,0.236 -0.731,0.732 -1.039,1.04c-0.146,0.146 -0.384,0.146 -0.53,-0c-0.231,-0.231 -0.565,-0.565 -0.796,-0.796c-0.146,-0.146 -0.146,-0.384 0,-0.53c0.308,-0.308 0.804,-0.804 1.04,-1.039Z" style="fill:#ed1c25;"/><g><path d="M6,9.938l0,0.374c0,0.104 -0.084,0.188 -0.188,0.188l-0.375,-0c-0.103,-0 -0.187,-0.084 -0.187,-0.188l0,-0.375c0,-0.103 0.084,-0.187 0.188,-0.187l0.375,-0c0.103,-0 0.187,0.084 0.187,0.187Z" style="fill:#ed1c25;"/><path d="M6,9.938l0,0.374c0,0.104 -0.084,0.188 -0.188,0.188l-0.375,-0c-0.103,-0 -0.187,-0.084 -0.187,-0.188l0,-0.375c0,-0.103 0.084,-0.187 0.188,-0.187l0.375,-0c0.103,-0 0.187,0.084 0.187,0.187Z" style="fill:#ed1c25;"/><path d="M4.5,9.938l0,0.374c0,0.104 -0.084,0.188 -0.188,0.188l-0.375,-0c-0.103,-0 -0.187,-0.084 -0.187,-0.188l-0,-0.375c-0,-0.103 0.084,-0.187 0.187,-0.187l0.375,-0c0.104,-0 0.188,0.084 0.188,0.187Z" style="fill:#ed1c25;"/><path d="M4.5,9.938l0,0.374c0,0.104 -0.084,0.188 -0.188,0.188l-0.375,-0c-0.103,-0 -0.187,-0.084 -0.187,-0.188l-0,-0.375c-0,-0.103 0.084,-0.187 0.187,-0.187l0.375,-0c0.104,-0 0.188,0.084 0.188,0.187Z" style="fill:#ed1c25;"/><path d="M3,9.938l0,0.374c0,0.104 -0.084,0.188 -0.188,0.188l-0.374,-0c-0.104,-0 -0.188,-0.084 -0.188,-0.188l0,-0.375c0,-0.103 0.084,-0.187 0.188,-0.187l0.375,-0c0.103,-0 0.187,0.084 0.187,0.187Z" style="fill:#ed1c25;"/><path d="M1.5,9.938l0,0.374c0,0.104 -0.084,0.188 -0.188,0.188l-0.375,-0c-0.103,-0 -0.187,-0.084 -0.187,-0.188l0,-0.375c0,-0.103 0.084,-0.187 0.188,-0.187l0.375,-0c0.103,-0 0.187,0.084 0.187,0.187Z" style="fill:#ed1c25;"/><path d="M0.75,1.688l0,0.375c0,0.103 -0.084,0.187 -0.188,0.187l-0.375,0c-0.103,0 -0.187,-0.084 -0.187,-0.187l-0,-0.375c-0,-0.104 0.084,-0.188 0.187,-0.188l0.375,0c0.104,0 0.188,0.084 0.188,0.188Z" style="fill:#ed1c25;"/><path d="M0.75,3.188l0,0.374c0,0.104 -0.084,0.188 -0.188,0.188l-0.375,-0c-0.103,-0 -0.187,-0.084 -0.187,-0.188l-0,-0.375c-0,-0.103 0.084,-0.187 0.187,-0.187l0.375,-0c0.104,-0 0.188,0.084 0.188,0.187Z" style="fill:#ed1c25;"/><path d="M0.75,4.688l0,0.375c0,0.103 -0.084,0.187 -0.188,0.187l-0.375,0c-0.103,0 -0.187,-0.084 -0.187,-0.188l-0,-0.375c-0,-0.103 0.084,-0.187 0.187,-0.187l0.375,0c0.104,0 0.188,0.084 0.188,0.188Z" style="fill:#ed1c25;"/><path d="M0.75,6.188l0,0.375c0,0.103 -0.084,0.187 -0.188,0.187l-0.375,0c-0.103,0 -0.187,-0.084 -0.187,-0.188l-0,-0.375c-0,-0.103 0.084,-0.187 0.187,-0.187l0.375,0c0.104,0 0.188,0.084 0.188,0.188Z" style="fill:#ed1c25;"/><path d="M0.75,7.688l0,0.375c0,0.103 -0.084,0.187 -0.188,0.187l-0.375,0c-0.103,0 -0.187,-0.084 -0.187,-0.187l-0,-0.375c-0,-0.104 0.084,-0.188 0.187,-0.188l0.375,0c0.104,0 0.188,0.084 0.188,0.188Z" style="fill:#ed1c25;"/><path d="M0.75,9.188l0,0.374c0,0.104 -0.084,0.188 -0.188,0.188l-0.375,-0c-0.103,-0 -0.187,-0.084 -0.187,-0.188l-0,-0.375c-0,-0.103 0.084,-0.187 0.187,-0.187l0.375,-0c0.104,-0 0.188,0.084 0.188,0.187Z" style="fill:#ed1c25;"/><path d="M4.5,0.938l0,0.374c0,0.104 -0.084,0.188 -0.188,0.188l-0.375,0c-0.103,0 -0.187,-0.084 -0.187,-0.188l-0,-0.375c-0,-0.103 0.084,-0.187 0.187,-0.187l0.375,0c0.104,0 0.188,0.084 0.188,0.188Z" style="fill:#ed1c25;"/><path d="M4.5,0.938l0,0.374c0,0.104 -0.084,0.188 -0.188,0.188l-0.375,0c-0.103,0 -0.187,-0.084 -0.187,-0.188l-0,-0.375c-0,-0.103 0.084,-0.187 0.187,-0.187l0.375,0c0.104,0 0.188,0.084 0.188,0.188Z" style="fill:#ed1c25;"/><path d="M3,0.938l0,0.374c0,0.104 -0.084,0.188 -0.188,0.188l-0.374,0c-0.104,0 -0.188,-0.084 -0.188,-0.188l0,-0.375c0,-0.103 0.084,-0.187 0.188,-0.187l0.375,0c0.103,0 0.187,0.084 0.187,0.188Z" style="fill:#ed1c25;"/><path d="M1.5,0.938l0,0.374c0,0.104 -0.084,0.188 -0.188,0.188l-0.375,0c-0.103,0 -0.187,-0.084 -0.187,-0.188l0,-0.375c0,-0.103 0.084,-0.187 0.188,-0.187l0.375,0c0.103,0 0.187,0.084 0.187,0.188Z" style="fill:#ed1c25;"/><path d="M4.5,3.938l0,0.374c0,0.104 -0.084,0.188 -0.188,0.188l-0.375,0c-0.103,0 -0.187,-0.084 -0.187,-0.188l-0,-0.375c-0,-0.103 0.084,-0.187 0.187,-0.187l0.375,-0c0.104,-0 0.188,0.084 0.188,0.187Z" style="fill:#ed1c25;"/><path d="M4.5,3.938l0,0.374c0,0.104 -0.084,0.188 -0.188,0.188l-0.375,0c-0.103,0 -0.187,-0.084 -0.187,-0.188l-0,-0.375c-0,-0.103 0.084,-0.187 0.187,-0.187l0.375,-0c0.104,-0 0.188,0.084 0.188,0.187Z" style="fill:#ed1c25;"/><path d="M3,3.938l0,0.374c0,0.104 -0.084,0.188 -0.188,0.188l-0.374,0c-0.104,0 -0.188,-0.084 -0.188,-0.188l0,-0.375c0,-0.103 0.084,-0.187 0.188,-0.187l0.375,-0c0.103,-0 0.187,0.084 0.187,0.187Z" style="fill:#ed1c25;"/><path d="M1.5,3.938l0,0.374c0,0.104 -0.084,0.188 -0.188,0.188l-0.375,0c-0.103,0 -0.187,-0.084 -0.187,-0.188l0,-0.375c0,-0.103 0.084,-0.187 0.188,-0.187l0.375,-0c0.103,-0 0.187,0.084 0.187,0.187Z" style="fill:#ed1c25;"/><path d="M6,1.688l0,0.375c0,0.103 -0.084,0.187 -0.188,0.187l-0.375,0c-0.103,0 -0.187,-0.084 -0.187,-0.187l0,-0.375c0,-0.104 0.084,-0.188 0.188,-0.188l0.375,0c0.103,0 0.187,0.084 0.187,0.188Z" style="fill:#ed1c25;"/><path d="M6.75,2.438l0,0.374c0,0.104 -0.084,0.188 -0.188,0.188l-0.375,-0c-0.103,-0 -0.187,-0.084 -0.187,-0.188l0,-0.375c0,-0.103 0.084,-0.187 0.188,-0.187l0.375,-0c0.103,-0 0.187,0.084 0.187,0.187Z" style="fill:#ed1c25;"/><path d="M6,3.188l0,0.374c0,0.104 -0.084,0.188 -0.188,0.188l-0.375,-0c-0.103,-0 -0.187,-0.084 -0.187,-0.188l0,-0.375c0,-0.103 0.084,-0.187 0.188,-0.187l0.375,-0c0.103,-0 0.187,0.084 0.187,0.187Z" style="fill:#ed1c25;"/><path d="M11.25,2.438l0,0.374c0,0.104 -0.084,0.188 -0.188,0.188l-0.374,-0c-0.104,-0 -0.188,-0.084 -0.188,-0.188l0,-0.375c0,-0.103 0.084,-0.187 0.188,-0.187l0.375,-0c0.103,-0 0.187,0.084 0.187,0.187Z" style="fill:#ed1c25;"/><path d="M11.25,2.438l0,0.374c0,0.104 -0.084,0.188 -0.188,0.188l-0.374,-0c-0.104,-0 -0.188,-0.084 -0.188,-0.188l0,-0.375c0,-0.103 0.084,-0.187 0.188,-0.187l0.375,-0c0.103,-0 0.187,0.084 0.187,0.187Z" style="fill:#ed1c25;"/><path d="M12,3.938l0,0.374c0,0.104 -0.084,0.188 -0.188,0.188l-0.374,0c-0.104,0 -0.188,-0.084 -0.188,-0.188l0,-0.375c0,-0.103 0.084,-0.187 0.188,-0.187l0.375,-0c0.103,-0 0.187,0.084 0.187,0.187Z" style="fill:#ed1c25;"/><path d="M9.75,2.438l0,0.374c0,0.104 -0.084,0.188 -0.188,0.188l-0.374,-0c-0.104,-0 -0.188,-0.084 -0.188,-0.188l0,-0.375c0,-0.103 0.084,-0.187 0.188,-0.187l0.375,-0c0.103,-0 0.187,0.084 0.187,0.187Z" style="fill:#ed1c25;"/><path d="M8.25,2.438l0,0.374c0,0.104 -0.084,0.188 -0.188,0.188l-0.374,-0c-0.104,-0 -0.188,-0.084 -0.188,-0.188l0,-0.375c0,-0.103 0.084,-0.187 0.188,-0.187l0.375,-0c0.103,-0 0.187,0.084 0.187,0.187Z" style="fill:#ed1c25;"/></g></svg>