<?xml version="1.0" encoding="utf-8"?>
<svg version="1.1" xmlns="http://www.w3.org/2000/svg" viewBox="-8 -8 16 16">
<path fill="#00885b" d="M0,0 l-7,0 l0,-4.5 a2.5,2.5,0,0,1,2.5,-2.5 l4.5,0"/>
<path fill="#00452e" d="M0,0 l7,0 l0,4.5 a2.5,2.5,0,0,1,-2.5,2.5 l-4.5,0"/>
<g fill="#005035">
	<path d="M0,0 l7,0 l0,-4.5 a2.5,2.5,0,0,0,-2.5,-2.5 l-4.5,0"/>
	<path d="M0,0 l-7,0 l0,4.5 a2.5,2.5,0,0,0,2.5,2.5 l4.5,0"/>
</g>
<circle r="7" fill="#064"/>
<g fill="#fff">
	<circle cx="-3" cy="-3" r="1.375"/>
	<circle r="1.375"/>
	<circle cx="3" cy="3" r="1.375"/>
</g>
</svg>
