<?xml version="1.0" encoding="UTF-8" standalone="no"?><!DOCTYPE svg PUBLIC "-//W3C//DTD SVG 1.1//EN" "http://www.w3.org/Graphics/SVG/1.1/DTD/svg11.dtd"><svg width="100%" height="100%" viewBox="0 0 16 16" version="1.1" xmlns="http://www.w3.org/2000/svg" xmlns:xlink="http://www.w3.org/1999/xlink" xml:space="preserve" xmlns:serif="http://www.serif.com/" style="fill-rule:evenodd;clip-rule:evenodd;stroke-linejoin:round;stroke-miterlimit:2;"><rect x="2" y="2" width="12" height="12" style="fill:#121212;"/><rect x="1" y="14" width="14" height="1" style="fill:#0cf;"/><rect x="14" y="4" width="1" height="10" style="fill:#93f;"/><path d="M14,5l0,-1l1,-0l-1,1Z" style="fill:#5c1f99;"/><rect x="1" y="2" width="1" height="12" style="fill:#0f9;"/><path d="M15,4l-3,0l0,-3l1,0l0,1l1,0l0,1l1,0l0,1Z" style="fill:#f66;"/><rect x="1" y="1" width="11" height="1" style="fill:#fff35c;"/><path d="M12,1l0,1l-1,0l1,-1Z" style="fill:#999237;"/><path d="M7,6l-2,0l0,-2l6,0l0,2l-2,0l0,6l-2,0l0,-6Z" style="fill:#fff;"/></svg>